<svg xmlns="http://www.w3.org/2000/svg" width="38.002" height="38.002" viewBox="0 0 38.002 38.002">
  <g id="katman_2" data-name="katman 2" transform="translate(-0.058 -0.01)">
    <g id="Capa_1" data-name="Capa 1">
      <path id="Path_16" data-name="Path 16" d="M16.78,15.76l5.75,3.27L16.78,22.3Z" fill="#779f7d"/>
      <path id="Path_17" data-name="Path 17" d="M32.49,5.57A19,19,0,1,0,38.06,19,19,19,0,0,0,32.49,5.57ZM29.56,24.36a2.76,2.76,0,0,1-1.94,2c-1.72.46-8.59.46-8.59.46s-6.87,0-8.59-.46a2.76,2.76,0,0,1-1.94-2,29.948,29.948,0,0,1-.04-10.68,2.75,2.75,0,0,1,1.94-2c1.72-.46,8.59-.46,8.59-.46s6.87,0,8.59.46a2.75,2.75,0,0,1,1.94,2A28.86,28.86,0,0,1,30,19a29,29,0,0,1-.44,5.36Z" fill="#779f7d"/>
      <path id="Path_18" data-name="Path 18" d="M16.78,15.76V22.3L22.53,19Z" fill="#779f7d"/>
      <path id="Path_19" data-name="Path 19" d="M22.53,19.03,16.78,22.3V15.76Z" fill="#779f7d"/>
    </g>
  </g>
</svg>
