<svg xmlns="http://www.w3.org/2000/svg" width="38.002" height="38.002" viewBox="0 0 38.002 38.002">
  <g id="katman_2" data-name="katman 2" transform="translate(-0.058 -0.01)">
    <g id="Capa_1" data-name="Capa 1">
      <path id="Path_13" data-name="Path 13" d="M32.49,5.57A19,19,0,1,0,38.06,19,19,19,0,0,0,32.49,5.57Zm-5.4,9.32A11.83,11.83,0,0,1,8.89,25.4a8.37,8.37,0,0,0,6.16-1.72,4.18,4.18,0,0,1-3.89-2.89A4.23,4.23,0,0,0,13,20.72a4.18,4.18,0,0,1-3.3-4.14,4.18,4.18,0,0,0,1.89.53,4.18,4.18,0,0,1-1.29-5.56,11.83,11.83,0,0,0,8.58,4.35A4.17,4.17,0,0,1,26,12.1a8.21,8.21,0,0,0,2.64-1,4.12,4.12,0,0,1-1.83,2.3,8.37,8.37,0,0,0,2.39-.65,8.5,8.5,0,0,1-2.11,2.14Z" fill="#779f7d"/>
    </g>
  </g>
</svg>
