<svg xmlns="http://www.w3.org/2000/svg" width="38.002" height="38.002" viewBox="0 0 38.002 38.002">
  <g id="katman_2" data-name="katman 2" transform="translate(-0.058 -0.02)">
    <g id="Capa_1" data-name="Capa 1">
      <path id="Path_11" data-name="Path 11" d="M27.52,14.82a5.45,5.45,0,0,0-.36-1.94,3.45,3.45,0,0,0-2-2,5.88,5.88,0,0,0-1.93-.36c-1.1,0-1.43-.06-4.22-.06s-3.12,0-4.22.06a5.88,5.88,0,0,0-1.93.36,3.45,3.45,0,0,0-2,2,5.45,5.45,0,0,0-.36,1.94c0,1.1-.06,1.43-.06,4.21s0,3.12.06,4.22a5.45,5.45,0,0,0,.36,1.94,3.28,3.28,0,0,0,.78,1.2,3.24,3.24,0,0,0,1.2.78,5.88,5.88,0,0,0,1.93.36c1.1,0,1.43.06,4.22.06s3.12,0,4.22-.06a5.88,5.88,0,0,0,1.93-.36,3.24,3.24,0,0,0,1.2-.78,3.28,3.28,0,0,0,.78-1.2,5.45,5.45,0,0,0,.36-1.94c.05-1.1.06-1.43.06-4.22S27.57,15.92,27.52,14.82ZM19,24.39a5.36,5.36,0,1,1,3.82-1.57A5.36,5.36,0,0,1,19,24.39Zm5.57-9.68a1.235,1.235,0,1,1,.03,0ZM19,15.55A3.48,3.48,0,1,0,22.51,19,3.48,3.48,0,0,0,19,15.55Zm8.49-.73a5.45,5.45,0,0,0-.36-1.94,3.45,3.45,0,0,0-2-2,5.88,5.88,0,0,0-1.93-.36c-1.1,0-1.43-.06-4.22-.06s-3.12,0-4.22.06a5.88,5.88,0,0,0-1.93.36,3.45,3.45,0,0,0-2,2,5.45,5.45,0,0,0-.36,1.94c0,1.1-.06,1.43-.06,4.21s0,3.12.06,4.22a5.45,5.45,0,0,0,.36,1.94,3.28,3.28,0,0,0,.78,1.2,3.24,3.24,0,0,0,1.2.78,5.88,5.88,0,0,0,1.93.36c1.1,0,1.43.06,4.22.06s3.12,0,4.22-.06a5.88,5.88,0,0,0,1.93-.36,3.24,3.24,0,0,0,1.2-.78,3.28,3.28,0,0,0,.78-1.2,5.45,5.45,0,0,0,.36-1.94c.05-1.1.06-1.43.06-4.22s.06-3.11.01-4.21ZM19,24.39a5.36,5.36,0,1,1,3.82-1.57A5.36,5.36,0,0,1,19,24.39Zm5.57-9.68a1.235,1.235,0,1,1,.03,0ZM19,15.55A3.48,3.48,0,1,0,22.51,19,3.48,3.48,0,0,0,19,15.55Zm13.46-10a13.1,13.1,0,1,0,.03.02ZM29.4,23.33a7.9,7.9,0,0,1-.48,2.54,5.24,5.24,0,0,1-1.21,1.85,5.12,5.12,0,0,1-1.85,1.2,7.57,7.57,0,0,1-2.53.48c-1.11.06-1.47.07-4.3.07s-3.19,0-4.3-.07a7.57,7.57,0,0,1-2.53-.48,5.12,5.12,0,0,1-1.85-1.2,5.24,5.24,0,0,1-1.21-1.85,7.9,7.9,0,0,1-.48-2.54c-.05-1.11-.06-1.46-.06-4.3s0-3.19.06-4.3a7.83,7.83,0,0,1,.48-2.53,5.15,5.15,0,0,1,1.21-1.85,5,5,0,0,1,1.85-1.2,7.54,7.54,0,0,1,2.53-.49c1.11-.05,1.47-.06,4.3-.06s3.19,0,4.3.06a7.54,7.54,0,0,1,2.53.49,5,5,0,0,1,1.85,1.2,5.15,5.15,0,0,1,1.21,1.85,7.83,7.83,0,0,1,.48,2.53c.05,1.11.06,1.47.06,4.3S29.45,22.22,29.4,23.33ZM27.16,12.88a3.45,3.45,0,0,0-2-2,5.88,5.88,0,0,0-1.93-.36c-1.1,0-1.43-.06-4.22-.06s-3.12,0-4.22.06a5.88,5.88,0,0,0-1.93.36,3.45,3.45,0,0,0-2,2,5.45,5.45,0,0,0-.36,1.94c0,1.1-.06,1.43-.06,4.21s0,3.12.06,4.22a5.45,5.45,0,0,0,.36,1.94,3.28,3.28,0,0,0,.78,1.2,3.24,3.24,0,0,0,1.2.78,5.88,5.88,0,0,0,1.93.36c1.1,0,1.43.06,4.22.06s3.12,0,4.22-.06a5.88,5.88,0,0,0,1.93-.36,3.24,3.24,0,0,0,1.2-.78,3.28,3.28,0,0,0,.78-1.2,5.45,5.45,0,0,0,.36-1.94c.05-1.1.06-1.43.06-4.22s0-3.11-.06-4.21a5.45,5.45,0,0,0-.32-1.94ZM19,24.39a5.36,5.36,0,1,1,3.82-1.57A5.36,5.36,0,0,1,19,24.39Zm5.57-9.68a1.235,1.235,0,1,1,.03,0ZM19,15.55A3.48,3.48,0,1,0,22.51,19,3.48,3.48,0,0,0,19,15.55Z" fill="#779f7d"/>
    </g>
  </g>
</svg>
