<svg xmlns="http://www.w3.org/2000/svg" width="38.002" height="38.002" viewBox="0 0 38.002 38.002">
  <g id="katman_2" data-name="katman 2" transform="translate(-0.058 -0.01)">
    <g id="Capa_1" data-name="Capa 1">
      <path id="Path_12" data-name="Path 12" d="M32.49,5.57A19,19,0,1,0,38.06,19,19,19,0,0,0,32.49,5.57ZM14.34,27.51H10.4V14.79h3.94Zm-2-14.39a2.325,2.325,0,1,1,.01,0ZM29.1,27.51H25.18V20.83C25.18,19,24.49,18,23,18s-2.4,1.06-2.4,2.85v6.68H16.86V14.79h3.78V16.5a4.42,4.42,0,0,1,3.83-2.1c2.7,0,4.63,1.65,4.63,5Z" fill="#779f7d"/>
    </g>
  </g>
</svg>
