<svg xmlns="http://www.w3.org/2000/svg" width="64.83" height="64.831" viewBox="0 0 64.83 64.831">
  <g id="katman_2" data-name="katman 2" transform="translate(0.032 0.01)">
    <g id="Capa_1" data-name="Capa 1" transform="translate(-0.032 -0.01)">
      <path id="Path_14" data-name="Path 14" d="M44.019,25.665a15.768,15.768,0,0,0-31.4-.307,13.942,13.942,0,0,0-.084,1.52,15.5,15.5,0,0,0,3,9.132l-1.966,5.855,6.064-1.938A15.768,15.768,0,0,0,44.075,26.877a11.584,11.584,0,0,0-.056-1.213Zm-6.511,7.668a4.573,4.573,0,0,1-3.095,2.161c-.85.084-.85.7-5.577-1.129s-7.626-6.594-7.849-6.887a10.093,10.093,0,0,1-1.645-3.165,5.786,5.786,0,0,1-.237-1.547,5.158,5.158,0,0,1,1.6-3.82,1.715,1.715,0,0,1,1.227-.558h.878c.265,0,.655-.167,1.032.753s1.31,3.165,1.394,3.388a.8.8,0,0,1,0,.795,4.8,4.8,0,0,1-.293.544l-.167.223c-.237.265-.474.586-.683.795a.682.682,0,0,0-.209.934,13.7,13.7,0,0,0,2.677,3.22,12.91,12.91,0,0,0,3.694,2.272c.474.223.739.181,1-.125s1.157-1.324,1.464-1.771.613-.39,1.032-.237,2.677,1.255,3.137,1.492.767.335.878.516a3.625,3.625,0,0,1-.265,2.147Z" transform="translate(4.988 4.435)" fill="#779f7d"/>
      <path id="Path_15" data-name="Path 15" d="M55.318,9.5A32.413,32.413,0,1,0,64.8,32.4,32.413,32.413,0,0,0,55.318,9.5ZM33.263,49.928A18.737,18.737,0,0,1,24.2,47.613L13.815,50.9,17.2,40.922A18.514,18.514,0,0,1,14.512,31.3c0-.265,0-.544,0-.809a18.751,18.751,0,0,1,37.474.335V31.3A18.681,18.681,0,0,1,33.263,49.914Z" transform="translate(0.032 0.01)" fill="#779f7d"/>
    </g>
  </g>
</svg>
